<mxfile host="Electron" modified="2023-08-15T11:45:42.850Z" agent="Mozilla/5.0 (X11; Linux x86_64) AppleWebKit/537.36 (KHTML, like Gecko) draw.io/21.6.8 Chrome/114.0.5735.289 Electron/25.5.0 Safari/537.36" etag="NSasAu4udoPTWd6fobCw" version="21.6.8" type="device">
  <diagram id="C5RBs43oDa-KdzZeNtuy" name="Page-1">
    <mxGraphModel dx="1321" dy="839" grid="1" gridSize="10" guides="1" tooltips="1" connect="1" arrows="1" fold="1" page="1" pageScale="1" pageWidth="827" pageHeight="1169" math="0" shadow="0">
      <root>
        <mxCell id="WIyWlLk6GJQsqaUBKTNV-0" />
        <mxCell id="WIyWlLk6GJQsqaUBKTNV-1" parent="WIyWlLk6GJQsqaUBKTNV-0" />
        <mxCell id="Mwpz-wzRsAJHt7b0iiVY-5" style="edgeStyle=orthogonalEdgeStyle;rounded=0;orthogonalLoop=1;jettySize=auto;html=1;entryX=0.5;entryY=0;entryDx=0;entryDy=0;" parent="WIyWlLk6GJQsqaUBKTNV-1" source="Mwpz-wzRsAJHt7b0iiVY-0" target="Mwpz-wzRsAJHt7b0iiVY-1" edge="1">
          <mxGeometry relative="1" as="geometry" />
        </mxCell>
        <mxCell id="Mwpz-wzRsAJHt7b0iiVY-7" style="edgeStyle=orthogonalEdgeStyle;rounded=0;orthogonalLoop=1;jettySize=auto;html=1;exitX=0;exitY=0.75;exitDx=0;exitDy=0;entryX=0.5;entryY=0;entryDx=0;entryDy=0;" parent="WIyWlLk6GJQsqaUBKTNV-1" source="Mwpz-wzRsAJHt7b0iiVY-0" target="Mwpz-wzRsAJHt7b0iiVY-2" edge="1">
          <mxGeometry relative="1" as="geometry" />
        </mxCell>
        <mxCell id="Mwpz-wzRsAJHt7b0iiVY-9" style="edgeStyle=orthogonalEdgeStyle;rounded=0;orthogonalLoop=1;jettySize=auto;html=1;entryX=0.5;entryY=0;entryDx=0;entryDy=0;" parent="WIyWlLk6GJQsqaUBKTNV-1" source="Mwpz-wzRsAJHt7b0iiVY-0" target="Mwpz-wzRsAJHt7b0iiVY-3" edge="1">
          <mxGeometry relative="1" as="geometry">
            <Array as="points">
              <mxPoint x="560" y="100" />
            </Array>
          </mxGeometry>
        </mxCell>
        <mxCell id="Mwpz-wzRsAJHt7b0iiVY-11" style="edgeStyle=orthogonalEdgeStyle;rounded=0;orthogonalLoop=1;jettySize=auto;html=1;entryX=0.5;entryY=0;entryDx=0;entryDy=0;" parent="WIyWlLk6GJQsqaUBKTNV-1" source="Mwpz-wzRsAJHt7b0iiVY-0" target="Mwpz-wzRsAJHt7b0iiVY-4" edge="1">
          <mxGeometry relative="1" as="geometry" />
        </mxCell>
        <mxCell id="Mwpz-wzRsAJHt7b0iiVY-0" value="Robot&lt;br&gt;" style="whiteSpace=wrap;html=1;aspect=fixed;" parent="WIyWlLk6GJQsqaUBKTNV-1" vertex="1">
          <mxGeometry x="374" y="40" width="80" height="80" as="geometry" />
        </mxCell>
        <mxCell id="Mwpz-wzRsAJHt7b0iiVY-1" value="Physics" style="whiteSpace=wrap;html=1;aspect=fixed;" parent="WIyWlLk6GJQsqaUBKTNV-1" vertex="1">
          <mxGeometry x="80" y="190" width="80" height="80" as="geometry" />
        </mxCell>
        <mxCell id="Mwpz-wzRsAJHt7b0iiVY-2" value="Shape&lt;br&gt;DEF &quot;Body&quot;&lt;br&gt;" style="whiteSpace=wrap;html=1;aspect=fixed;" parent="WIyWlLk6GJQsqaUBKTNV-1" vertex="1">
          <mxGeometry x="310" y="190" width="80" height="80" as="geometry" />
        </mxCell>
        <mxCell id="Mwpz-wzRsAJHt7b0iiVY-3" value="USE &quot;Body&quot;" style="whiteSpace=wrap;html=1;aspect=fixed;" parent="WIyWlLk6GJQsqaUBKTNV-1" vertex="1">
          <mxGeometry x="520" y="190" width="80" height="80" as="geometry" />
        </mxCell>
        <mxCell id="Mwpz-wzRsAJHt7b0iiVY-16" style="edgeStyle=orthogonalEdgeStyle;rounded=0;orthogonalLoop=1;jettySize=auto;html=1;entryX=0.5;entryY=0;entryDx=0;entryDy=0;" parent="WIyWlLk6GJQsqaUBKTNV-1" source="Mwpz-wzRsAJHt7b0iiVY-4" target="Mwpz-wzRsAJHt7b0iiVY-13" edge="1">
          <mxGeometry relative="1" as="geometry">
            <Array as="points">
              <mxPoint x="830" y="230" />
              <mxPoint x="830" y="300" />
              <mxPoint x="770" y="300" />
            </Array>
          </mxGeometry>
        </mxCell>
        <mxCell id="Mwpz-wzRsAJHt7b0iiVY-18" style="edgeStyle=orthogonalEdgeStyle;rounded=0;orthogonalLoop=1;jettySize=auto;html=1;entryX=0.5;entryY=0;entryDx=0;entryDy=0;" parent="WIyWlLk6GJQsqaUBKTNV-1" source="Mwpz-wzRsAJHt7b0iiVY-4" target="Mwpz-wzRsAJHt7b0iiVY-14" edge="1">
          <mxGeometry relative="1" as="geometry" />
        </mxCell>
        <mxCell id="Mwpz-wzRsAJHt7b0iiVY-20" style="edgeStyle=orthogonalEdgeStyle;rounded=0;orthogonalLoop=1;jettySize=auto;html=1;entryX=0.5;entryY=0;entryDx=0;entryDy=0;" parent="WIyWlLk6GJQsqaUBKTNV-1" source="Mwpz-wzRsAJHt7b0iiVY-4" target="Mwpz-wzRsAJHt7b0iiVY-15" edge="1">
          <mxGeometry relative="1" as="geometry" />
        </mxCell>
        <mxCell id="Mwpz-wzRsAJHt7b0iiVY-4" value="SliderJoint" style="whiteSpace=wrap;html=1;aspect=fixed;" parent="WIyWlLk6GJQsqaUBKTNV-1" vertex="1">
          <mxGeometry x="890" y="190" width="80" height="80" as="geometry" />
        </mxCell>
        <mxCell id="Mwpz-wzRsAJHt7b0iiVY-6" value="physics" style="text;html=1;strokeColor=none;fillColor=none;align=center;verticalAlign=middle;whiteSpace=wrap;rounded=0;" parent="WIyWlLk6GJQsqaUBKTNV-1" vertex="1">
          <mxGeometry x="180" y="50" width="60" height="30" as="geometry" />
        </mxCell>
        <mxCell id="Mwpz-wzRsAJHt7b0iiVY-8" value="children" style="text;html=1;strokeColor=none;fillColor=none;align=center;verticalAlign=middle;whiteSpace=wrap;rounded=0;" parent="WIyWlLk6GJQsqaUBKTNV-1" vertex="1">
          <mxGeometry x="290" y="120" width="60" height="30" as="geometry" />
        </mxCell>
        <mxCell id="Mwpz-wzRsAJHt7b0iiVY-10" value="boundingObject" style="text;html=1;strokeColor=none;fillColor=none;align=center;verticalAlign=middle;whiteSpace=wrap;rounded=0;" parent="WIyWlLk6GJQsqaUBKTNV-1" vertex="1">
          <mxGeometry x="470" y="110" width="60" height="30" as="geometry" />
        </mxCell>
        <mxCell id="Mwpz-wzRsAJHt7b0iiVY-12" value="children" style="text;html=1;strokeColor=none;fillColor=none;align=center;verticalAlign=middle;whiteSpace=wrap;rounded=0;" parent="WIyWlLk6GJQsqaUBKTNV-1" vertex="1">
          <mxGeometry x="730" y="50" width="60" height="30" as="geometry" />
        </mxCell>
        <mxCell id="Mwpz-wzRsAJHt7b0iiVY-13" value="Lineer Motor" style="whiteSpace=wrap;html=1;aspect=fixed;" parent="WIyWlLk6GJQsqaUBKTNV-1" vertex="1">
          <mxGeometry x="730" y="360" width="80" height="80" as="geometry" />
        </mxCell>
        <mxCell id="Mwpz-wzRsAJHt7b0iiVY-14" value="SliderJointParameters" style="whiteSpace=wrap;html=1;aspect=fixed;" parent="WIyWlLk6GJQsqaUBKTNV-1" vertex="1">
          <mxGeometry x="890" y="360" width="80" height="80" as="geometry" />
        </mxCell>
        <mxCell id="Mwpz-wzRsAJHt7b0iiVY-25" style="edgeStyle=orthogonalEdgeStyle;rounded=0;orthogonalLoop=1;jettySize=auto;html=1;entryX=0.5;entryY=0;entryDx=0;entryDy=0;" parent="WIyWlLk6GJQsqaUBKTNV-1" source="Mwpz-wzRsAJHt7b0iiVY-15" target="Mwpz-wzRsAJHt7b0iiVY-22" edge="1">
          <mxGeometry relative="1" as="geometry">
            <Array as="points">
              <mxPoint x="1020" y="400" />
              <mxPoint x="1020" y="460" />
              <mxPoint x="970" y="460" />
            </Array>
          </mxGeometry>
        </mxCell>
        <mxCell id="Mwpz-wzRsAJHt7b0iiVY-27" style="edgeStyle=orthogonalEdgeStyle;rounded=0;orthogonalLoop=1;jettySize=auto;html=1;entryX=0.5;entryY=0;entryDx=0;entryDy=0;" parent="WIyWlLk6GJQsqaUBKTNV-1" source="Mwpz-wzRsAJHt7b0iiVY-15" target="I5VvUHwtIN55ih0NQWxa-0" edge="1">
          <mxGeometry relative="1" as="geometry">
            <mxPoint x="1090" y="520" as="targetPoint" />
          </mxGeometry>
        </mxCell>
        <mxCell id="Mwpz-wzRsAJHt7b0iiVY-29" style="edgeStyle=orthogonalEdgeStyle;rounded=0;orthogonalLoop=1;jettySize=auto;html=1;entryX=0.5;entryY=0;entryDx=0;entryDy=0;" parent="WIyWlLk6GJQsqaUBKTNV-1" source="Mwpz-wzRsAJHt7b0iiVY-15" target="Mwpz-wzRsAJHt7b0iiVY-24" edge="1">
          <mxGeometry relative="1" as="geometry">
            <Array as="points">
              <mxPoint x="1210" y="430" />
            </Array>
          </mxGeometry>
        </mxCell>
        <mxCell id="I5VvUHwtIN55ih0NQWxa-7" style="edgeStyle=orthogonalEdgeStyle;rounded=0;orthogonalLoop=1;jettySize=auto;html=1;entryX=0.5;entryY=0;entryDx=0;entryDy=0;" edge="1" parent="WIyWlLk6GJQsqaUBKTNV-1" source="Mwpz-wzRsAJHt7b0iiVY-15" target="I5VvUHwtIN55ih0NQWxa-8">
          <mxGeometry relative="1" as="geometry">
            <mxPoint x="1390" y="490" as="targetPoint" />
            <Array as="points">
              <mxPoint x="1400" y="400" />
            </Array>
          </mxGeometry>
        </mxCell>
        <mxCell id="Mwpz-wzRsAJHt7b0iiVY-15" value="Solid &lt;br&gt;DEF &quot;dikey_kol&quot;" style="whiteSpace=wrap;html=1;aspect=fixed;" parent="WIyWlLk6GJQsqaUBKTNV-1" vertex="1">
          <mxGeometry x="1050" y="360" width="80" height="80" as="geometry" />
        </mxCell>
        <mxCell id="Mwpz-wzRsAJHt7b0iiVY-17" value="device" style="text;html=1;strokeColor=none;fillColor=none;align=center;verticalAlign=middle;whiteSpace=wrap;rounded=0;" parent="WIyWlLk6GJQsqaUBKTNV-1" vertex="1">
          <mxGeometry x="820" y="200" width="60" height="30" as="geometry" />
        </mxCell>
        <mxCell id="Mwpz-wzRsAJHt7b0iiVY-19" value="JointParameters" style="text;html=1;strokeColor=none;fillColor=none;align=center;verticalAlign=middle;whiteSpace=wrap;rounded=0;" parent="WIyWlLk6GJQsqaUBKTNV-1" vertex="1">
          <mxGeometry x="950" y="300" width="60" height="30" as="geometry" />
        </mxCell>
        <mxCell id="Mwpz-wzRsAJHt7b0iiVY-21" value="endPoint" style="text;html=1;strokeColor=none;fillColor=none;align=center;verticalAlign=middle;whiteSpace=wrap;rounded=0;" parent="WIyWlLk6GJQsqaUBKTNV-1" vertex="1">
          <mxGeometry x="1020" y="200" width="60" height="30" as="geometry" />
        </mxCell>
        <mxCell id="Mwpz-wzRsAJHt7b0iiVY-22" value="Physics&amp;nbsp;" style="whiteSpace=wrap;html=1;aspect=fixed;" parent="WIyWlLk6GJQsqaUBKTNV-1" vertex="1">
          <mxGeometry x="930" y="520" width="80" height="80" as="geometry" />
        </mxCell>
        <mxCell id="Mwpz-wzRsAJHt7b0iiVY-24" value="USE &quot;dikey_kol&quot;" style="whiteSpace=wrap;html=1;aspect=fixed;" parent="WIyWlLk6GJQsqaUBKTNV-1" vertex="1">
          <mxGeometry x="1170" y="520" width="80" height="80" as="geometry" />
        </mxCell>
        <mxCell id="Mwpz-wzRsAJHt7b0iiVY-26" value="Physics" style="text;html=1;strokeColor=none;fillColor=none;align=center;verticalAlign=middle;whiteSpace=wrap;rounded=0;" parent="WIyWlLk6GJQsqaUBKTNV-1" vertex="1">
          <mxGeometry x="900" y="470" width="60" height="30" as="geometry" />
        </mxCell>
        <mxCell id="Mwpz-wzRsAJHt7b0iiVY-28" value="children" style="text;html=1;strokeColor=none;fillColor=none;align=center;verticalAlign=middle;whiteSpace=wrap;rounded=0;" parent="WIyWlLk6GJQsqaUBKTNV-1" vertex="1">
          <mxGeometry x="1090" y="460" width="60" height="30" as="geometry" />
        </mxCell>
        <mxCell id="Mwpz-wzRsAJHt7b0iiVY-30" value="boundingObject" style="text;html=1;strokeColor=none;fillColor=none;align=center;verticalAlign=middle;whiteSpace=wrap;rounded=0;" parent="WIyWlLk6GJQsqaUBKTNV-1" vertex="1">
          <mxGeometry x="1230" y="470" width="60" height="30" as="geometry" />
        </mxCell>
        <mxCell id="I5VvUHwtIN55ih0NQWxa-0" value="Shape&lt;br&gt;&quot;dikey_kol&quot;" style="whiteSpace=wrap;html=1;aspect=fixed;" vertex="1" parent="WIyWlLk6GJQsqaUBKTNV-1">
          <mxGeometry x="1050" y="520" width="80" height="80" as="geometry" />
        </mxCell>
        <mxCell id="I5VvUHwtIN55ih0NQWxa-10" style="edgeStyle=orthogonalEdgeStyle;rounded=0;orthogonalLoop=1;jettySize=auto;html=1;entryX=0.5;entryY=0;entryDx=0;entryDy=0;" edge="1" parent="WIyWlLk6GJQsqaUBKTNV-1" source="I5VvUHwtIN55ih0NQWxa-8" target="I5VvUHwtIN55ih0NQWxa-16">
          <mxGeometry relative="1" as="geometry">
            <mxPoint x="1310" y="690" as="targetPoint" />
            <Array as="points">
              <mxPoint x="1320" y="560" />
              <mxPoint x="1320" y="640" />
              <mxPoint x="1240" y="640" />
              <mxPoint x="1240" y="690" />
              <mxPoint x="1241" y="690" />
            </Array>
          </mxGeometry>
        </mxCell>
        <mxCell id="I5VvUHwtIN55ih0NQWxa-11" style="edgeStyle=orthogonalEdgeStyle;rounded=0;orthogonalLoop=1;jettySize=auto;html=1;entryX=0.5;entryY=0;entryDx=0;entryDy=0;" edge="1" parent="WIyWlLk6GJQsqaUBKTNV-1" source="I5VvUHwtIN55ih0NQWxa-8" target="I5VvUHwtIN55ih0NQWxa-18">
          <mxGeometry relative="1" as="geometry">
            <mxPoint x="1400" y="720" as="targetPoint" />
          </mxGeometry>
        </mxCell>
        <mxCell id="I5VvUHwtIN55ih0NQWxa-12" style="edgeStyle=orthogonalEdgeStyle;rounded=0;orthogonalLoop=1;jettySize=auto;html=1;entryX=0.5;entryY=0;entryDx=0;entryDy=0;" edge="1" parent="WIyWlLk6GJQsqaUBKTNV-1" source="I5VvUHwtIN55ih0NQWxa-8" target="I5VvUHwtIN55ih0NQWxa-24">
          <mxGeometry relative="1" as="geometry">
            <mxPoint x="1520" y="720" as="targetPoint" />
            <Array as="points">
              <mxPoint x="1480" y="560" />
              <mxPoint x="1480" y="640" />
              <mxPoint x="1560" y="640" />
            </Array>
          </mxGeometry>
        </mxCell>
        <mxCell id="I5VvUHwtIN55ih0NQWxa-8" value="SliderJoint" style="whiteSpace=wrap;html=1;aspect=fixed;" vertex="1" parent="WIyWlLk6GJQsqaUBKTNV-1">
          <mxGeometry x="1360" y="520" width="80" height="80" as="geometry" />
        </mxCell>
        <mxCell id="I5VvUHwtIN55ih0NQWxa-9" value="children" style="text;html=1;strokeColor=none;fillColor=none;align=center;verticalAlign=middle;whiteSpace=wrap;rounded=0;" vertex="1" parent="WIyWlLk6GJQsqaUBKTNV-1">
          <mxGeometry x="1241" y="370" width="60" height="30" as="geometry" />
        </mxCell>
        <mxCell id="I5VvUHwtIN55ih0NQWxa-13" value="device" style="text;html=1;strokeColor=none;fillColor=none;align=center;verticalAlign=middle;whiteSpace=wrap;rounded=0;" vertex="1" parent="WIyWlLk6GJQsqaUBKTNV-1">
          <mxGeometry x="1270" y="600" width="60" height="30" as="geometry" />
        </mxCell>
        <mxCell id="I5VvUHwtIN55ih0NQWxa-14" value="JointParameters" style="text;html=1;strokeColor=none;fillColor=none;align=center;verticalAlign=middle;whiteSpace=wrap;rounded=0;" vertex="1" parent="WIyWlLk6GJQsqaUBKTNV-1">
          <mxGeometry x="1420" y="650" width="60" height="30" as="geometry" />
        </mxCell>
        <mxCell id="I5VvUHwtIN55ih0NQWxa-15" value="endPoint" style="text;html=1;strokeColor=none;fillColor=none;align=center;verticalAlign=middle;whiteSpace=wrap;rounded=0;" vertex="1" parent="WIyWlLk6GJQsqaUBKTNV-1">
          <mxGeometry x="1480" y="600" width="60" height="30" as="geometry" />
        </mxCell>
        <mxCell id="I5VvUHwtIN55ih0NQWxa-16" value="Lineer Motor" style="whiteSpace=wrap;html=1;aspect=fixed;" vertex="1" parent="WIyWlLk6GJQsqaUBKTNV-1">
          <mxGeometry x="1201" y="720" width="80" height="80" as="geometry" />
        </mxCell>
        <mxCell id="I5VvUHwtIN55ih0NQWxa-18" value="SliderJointParameters" style="whiteSpace=wrap;html=1;aspect=fixed;" vertex="1" parent="WIyWlLk6GJQsqaUBKTNV-1">
          <mxGeometry x="1360" y="720" width="80" height="80" as="geometry" />
        </mxCell>
        <mxCell id="I5VvUHwtIN55ih0NQWxa-21" style="edgeStyle=orthogonalEdgeStyle;rounded=0;orthogonalLoop=1;jettySize=auto;html=1;entryX=0.5;entryY=0;entryDx=0;entryDy=0;" edge="1" parent="WIyWlLk6GJQsqaUBKTNV-1" source="I5VvUHwtIN55ih0NQWxa-24" target="I5VvUHwtIN55ih0NQWxa-25">
          <mxGeometry relative="1" as="geometry">
            <Array as="points">
              <mxPoint x="1490" y="760" />
              <mxPoint x="1490" y="820" />
              <mxPoint x="1440" y="820" />
            </Array>
          </mxGeometry>
        </mxCell>
        <mxCell id="I5VvUHwtIN55ih0NQWxa-22" style="edgeStyle=orthogonalEdgeStyle;rounded=0;orthogonalLoop=1;jettySize=auto;html=1;entryX=0.5;entryY=0;entryDx=0;entryDy=0;" edge="1" parent="WIyWlLk6GJQsqaUBKTNV-1" source="I5VvUHwtIN55ih0NQWxa-24" target="I5VvUHwtIN55ih0NQWxa-27">
          <mxGeometry relative="1" as="geometry">
            <mxPoint x="1560" y="880" as="targetPoint" />
          </mxGeometry>
        </mxCell>
        <mxCell id="I5VvUHwtIN55ih0NQWxa-23" style="edgeStyle=orthogonalEdgeStyle;rounded=0;orthogonalLoop=1;jettySize=auto;html=1;entryX=0.5;entryY=0;entryDx=0;entryDy=0;" edge="1" parent="WIyWlLk6GJQsqaUBKTNV-1" source="I5VvUHwtIN55ih0NQWxa-24" target="I5VvUHwtIN55ih0NQWxa-26">
          <mxGeometry relative="1" as="geometry">
            <Array as="points">
              <mxPoint x="1680" y="790" />
            </Array>
          </mxGeometry>
        </mxCell>
        <mxCell id="I5VvUHwtIN55ih0NQWxa-24" value="Solid &lt;br&gt;DEF &quot;yatay_kol&quot;" style="whiteSpace=wrap;html=1;aspect=fixed;" vertex="1" parent="WIyWlLk6GJQsqaUBKTNV-1">
          <mxGeometry x="1520" y="720" width="80" height="80" as="geometry" />
        </mxCell>
        <mxCell id="I5VvUHwtIN55ih0NQWxa-25" value="Physics&amp;nbsp;" style="whiteSpace=wrap;html=1;aspect=fixed;" vertex="1" parent="WIyWlLk6GJQsqaUBKTNV-1">
          <mxGeometry x="1400" y="880" width="80" height="80" as="geometry" />
        </mxCell>
        <mxCell id="I5VvUHwtIN55ih0NQWxa-26" value="USE &quot;yatay_kol&quot;" style="whiteSpace=wrap;html=1;aspect=fixed;" vertex="1" parent="WIyWlLk6GJQsqaUBKTNV-1">
          <mxGeometry x="1640" y="880" width="80" height="80" as="geometry" />
        </mxCell>
        <mxCell id="I5VvUHwtIN55ih0NQWxa-27" value="Shape&lt;br&gt;&quot;yatay_kol&quot;" style="whiteSpace=wrap;html=1;aspect=fixed;" vertex="1" parent="WIyWlLk6GJQsqaUBKTNV-1">
          <mxGeometry x="1520" y="880" width="80" height="80" as="geometry" />
        </mxCell>
        <mxCell id="I5VvUHwtIN55ih0NQWxa-28" value="Physics" style="text;html=1;strokeColor=none;fillColor=none;align=center;verticalAlign=middle;whiteSpace=wrap;rounded=0;" vertex="1" parent="WIyWlLk6GJQsqaUBKTNV-1">
          <mxGeometry x="1360" y="840" width="60" height="30" as="geometry" />
        </mxCell>
        <mxCell id="I5VvUHwtIN55ih0NQWxa-29" value="children" style="text;html=1;strokeColor=none;fillColor=none;align=center;verticalAlign=middle;whiteSpace=wrap;rounded=0;" vertex="1" parent="WIyWlLk6GJQsqaUBKTNV-1">
          <mxGeometry x="1500" y="840" width="60" height="30" as="geometry" />
        </mxCell>
        <mxCell id="I5VvUHwtIN55ih0NQWxa-30" value="boundingObject" style="text;html=1;strokeColor=none;fillColor=none;align=center;verticalAlign=middle;whiteSpace=wrap;rounded=0;" vertex="1" parent="WIyWlLk6GJQsqaUBKTNV-1">
          <mxGeometry x="1700" y="830" width="60" height="30" as="geometry" />
        </mxCell>
      </root>
    </mxGraphModel>
  </diagram>
</mxfile>
